Original title: Cecilie
Year: 2007
Runtime: 1 hour 32 minutes
Country: Denmark
Language: Danish
Genre: Horror | Thriller
Director: Hans Fabian Wullenweber
Cast: 
Sonja Richter … Cecilie Larsen
Anders W. Berthelsen … Per Hartmann
Claus Riis Østergaard … Mads Larsen
Kurt Ravn … Karsten Levinsen
Plot/Synopsis:
Cecilie experiences a rape, but no traces are found. Her husband commits her to a psychiatric hospital. With the help of a psychiatrist she sees a frightening connection between her condition and a brutal murder dating more than 30 years back.

Cecilie-[2007]-DVDRIP-[DEN]-Hitro

Format                           : AVI
Format/Info                      : Audio Video Interleave
File size                        : 698 MiB
Duration                         : 1h 32mn
Overall bit rate                 : 1 057 Kbps
Writing application              : transcode-1.0.6rc2

Video
ID                               : 0
Format                           : MPEG-4 Visual
Format profile                   : Advanced Simple@L5
Format settings, BVOP            : 1
Format settings, QPel            : No
Format settings, GMC             : No warppoints
Format settings, Matrix          : Default (H.263)
Codec ID                         : XVID
Codec ID/Hint                    : XviD
Duration                         : 1h 32mn
Bit rate                         : 919 Kbps
Width                            : 624 pixels
Height                           : 272 pixels
Display aspect ratio             : 2.25:1
Frame rate                       : 25.000 fps
Color space                      : YUV
Chroma subsampling               : 4:2:0
Bit depth                        : 8 bits
Scan type                        : Progressive
Compression mode                 : Lossy
Bits/(Pixel*Frame)               : 0.217
Stream size                      : 607 MiB (87%)
Writing library                  : XviD 1.1.2 (UTC 2006-11-01)

Audio
ID                               : 1
Format                           : MPEG Audio
Format version                   : Version 1
Format profile                   : Layer 3
Mode                             : Joint stereo
Mode extension                   : MS Stereo
Codec ID                         : 55
Codec ID/Hint                    : MP3
Duration                         : 1h 32mn
Bit rate mode                    : Constant
Bit rate                         : 128 Kbps
Channel(s)                       : 2 channels
Sampling rate                    : 44.1 KHz
Compression mode                 : Lossy
Stream size                      : 84.6 MiB (12%)
Alignment                        : Split accross interleaves
Interleave, duration             : 40 ms (1.00 video frame)
